<svg xmlns="http://www.w3.org/2000/svg" xmlns:xlink="http://www.w3.org/1999/xlink" width="800" zoomAndPan="magnify" viewBox="0 0 600 149.999998" height="200" preserveAspectRatio="xMidYMid meet" version="1.0"><defs><g/></defs><rect x="-60" width="720" fill="#ffffff" y="-15" height="179.999997" fill-opacity="1"/><rect x="-60" width="720" fill="#ffffff" y="-15" height="179.999997" fill-opacity="1"/><g fill="#1a87c8" fill-opacity="1"><g transform="translate(149.094677, 107.089469)"><g><path d="M 30.09375 0 L 16.171875 0 L 1.71875 -63.03125 L 14.140625 -63.03125 L 23.671875 -18.71875 L 24.75 -18.71875 L 36.046875 -63.03125 L 46.6875 -63.03125 L 58.203125 -18.71875 L 59.28125 -18.71875 L 68.859375 -63.03125 L 80.84375 -63.03125 L 66.4375 0 L 52.46875 0 L 41.4375 -40.65625 L 40.53125 -40.65625 Z M 30.09375 0 "/></g></g></g><g fill="#1a87c8" fill-opacity="1"><g transform="translate(231.608799, 107.089469)"><g><path d="M 47 -21.078125 L 16.421875 -21.078125 C 16.765625 -16.941406 17.941406 -13.929688 19.953125 -12.046875 C 21.972656 -10.160156 24.722656 -9.21875 28.203125 -9.21875 C 30.929688 -9.21875 33.140625 -9.726562 34.828125 -10.75 C 36.523438 -11.769531 37.894531 -13.316406 38.9375 -15.390625 L 39.84375 -15.390625 L 47.765625 -10.296875 C 46.210938 -6.960938 43.867188 -4.257812 40.734375 -2.1875 C 37.609375 -0.125 33.429688 0.90625 28.203125 0.90625 C 23.285156 0.90625 19.035156 -0.0234375 15.453125 -1.890625 C 11.878906 -3.765625 9.117188 -6.546875 7.171875 -10.234375 C 5.234375 -13.929688 4.265625 -18.4375 4.265625 -23.75 C 4.265625 -29.15625 5.285156 -33.710938 7.328125 -37.421875 C 9.367188 -41.128906 12.128906 -43.894531 15.609375 -45.71875 C 19.085938 -47.539062 22.992188 -48.453125 27.328125 -48.453125 C 34.054688 -48.453125 39.207031 -46.671875 42.78125 -43.109375 C 46.363281 -39.546875 48.15625 -34.316406 48.15625 -27.421875 C 48.15625 -24.921875 48.070312 -22.976562 47.90625 -21.59375 Z M 36.734375 -28.796875 C 36.617188 -32.421875 35.773438 -35.054688 34.203125 -36.703125 C 32.640625 -38.359375 30.347656 -39.1875 27.328125 -39.1875 C 21.296875 -39.1875 17.75 -35.722656 16.6875 -28.796875 Z M 36.734375 -28.796875 "/></g></g></g><g fill="#1a87c8" fill-opacity="1"><g transform="translate(283.29868, 107.089469)"><g><path d="M 33.234375 0.90625 C 27.171875 0.90625 22.660156 -1.363281 19.703125 -5.90625 L 18.796875 -5.734375 L 18.796875 0 L 6.859375 0 L 6.859375 -66.65625 L 18.796875 -66.65625 L 18.796875 -41.953125 L 19.703125 -41.78125 C 21.335938 -44.050781 23.269531 -45.726562 25.5 -46.8125 C 27.726562 -47.90625 30.394531 -48.453125 33.5 -48.453125 C 37.351562 -48.453125 40.71875 -47.546875 43.59375 -45.734375 C 46.46875 -43.929688 48.707031 -41.179688 50.3125 -37.484375 C 51.925781 -33.796875 52.734375 -29.21875 52.734375 -23.75 C 52.734375 -18.351562 51.898438 -13.804688 50.234375 -10.109375 C 48.566406 -6.410156 46.265625 -3.648438 43.328125 -1.828125 C 40.398438 -0.00390625 37.035156 0.90625 33.234375 0.90625 Z M 29.625 -9.21875 C 33.125 -9.21875 35.789062 -10.390625 37.625 -12.734375 C 39.46875 -15.078125 40.390625 -18.75 40.390625 -23.75 C 40.390625 -28.78125 39.46875 -32.46875 37.625 -34.8125 C 35.789062 -37.15625 33.125 -38.328125 29.625 -38.328125 C 26.257812 -38.328125 23.59375 -37.117188 21.625 -34.703125 C 19.65625 -32.285156 18.671875 -28.632812 18.671875 -23.75 C 18.671875 -18.863281 19.65625 -15.21875 21.625 -12.8125 C 23.59375 -10.414062 26.257812 -9.21875 29.625 -9.21875 Z M 29.625 -9.21875 "/></g></g></g><g fill="#1a87c8" fill-opacity="1"><g transform="translate(340.248082, 107.089469)"><g><path d="M 6.859375 0 L 6.859375 -66.65625 L 18.796875 -66.65625 L 18.796875 -29.65625 L 19.96875 -29.65625 L 33.71875 -47.546875 L 45.828125 -47.546875 L 45.828125 -46.5625 L 29.65625 -25.703125 L 47.640625 -1.078125 L 47.640625 0 L 35.046875 0 L 19.96875 -20.046875 L 18.796875 -20.046875 L 18.796875 0 Z M 6.859375 0 "/></g></g></g><g fill="#1a87c8" fill-opacity="1"><g transform="translate(387.971768, 107.089469)"><g><path d="M 27.640625 0.90625 C 22.984375 0.90625 18.894531 -0.046875 15.375 -1.953125 C 11.851562 -3.867188 9.117188 -6.671875 7.171875 -10.359375 C 5.234375 -14.054688 4.265625 -18.519531 4.265625 -23.75 C 4.265625 -28.988281 5.234375 -33.457031 7.171875 -37.15625 C 9.117188 -40.863281 11.851562 -43.671875 15.375 -45.578125 C 18.894531 -47.492188 22.984375 -48.453125 27.640625 -48.453125 C 32.296875 -48.453125 36.382812 -47.492188 39.90625 -45.578125 C 43.425781 -43.671875 46.160156 -40.863281 48.109375 -37.15625 C 50.066406 -33.457031 51.046875 -28.988281 51.046875 -23.75 C 51.046875 -18.519531 50.066406 -14.054688 48.109375 -10.359375 C 46.160156 -6.671875 43.425781 -3.867188 39.90625 -1.953125 C 36.382812 -0.046875 32.296875 0.90625 27.640625 0.90625 Z M 27.640625 -9.21875 C 35.023438 -9.21875 38.71875 -14.0625 38.71875 -23.75 C 38.71875 -28.78125 37.769531 -32.46875 35.875 -34.8125 C 33.976562 -37.15625 31.234375 -38.328125 27.640625 -38.328125 C 20.253906 -38.328125 16.5625 -33.46875 16.5625 -23.75 C 16.5625 -14.0625 20.253906 -9.21875 27.640625 -9.21875 Z M 27.640625 -9.21875 "/></g></g></g><g fill="#1a87c8" fill-opacity="1"><g transform="translate(443.239848, 107.089469)"><g><path d="M 6.859375 0 L 6.859375 -47.546875 L 18.453125 -47.546875 L 18.453125 -40.484375 L 19.359375 -40.3125 C 20.503906 -42.957031 22.007812 -44.894531 23.875 -46.125 C 25.75 -47.363281 28.023438 -47.984375 30.703125 -47.984375 C 33.398438 -47.984375 35.453125 -47.523438 36.859375 -46.609375 L 34.828125 -36.296875 L 33.9375 -36.125 C 33.15625 -36.445312 32.40625 -36.675781 31.6875 -36.8125 C 30.96875 -36.957031 30.09375 -37.03125 29.0625 -37.03125 C 25.726562 -37.03125 23.179688 -35.859375 21.421875 -33.515625 C 19.671875 -31.171875 18.796875 -27.414062 18.796875 -22.25 L 18.796875 0 Z M 6.859375 0 "/></g></g></g><g fill="#1a87c8" fill-opacity="1"><g transform="translate(480.530714, 107.089469)"><g><path d="M 6.859375 19.265625 L 6.859375 -47.546875 L 18.796875 -47.546875 L 18.796875 -41.34375 L 19.703125 -41.171875 C 21.109375 -43.585938 22.988281 -45.40625 25.34375 -46.625 C 27.707031 -47.84375 30.46875 -48.453125 33.625 -48.453125 C 37.445312 -48.453125 40.785156 -47.546875 43.640625 -45.734375 C 46.503906 -43.929688 48.734375 -41.179688 50.328125 -37.484375 C 51.929688 -33.796875 52.734375 -29.21875 52.734375 -23.75 C 52.734375 -18.320312 51.890625 -13.765625 50.203125 -10.078125 C 48.523438 -6.398438 46.191406 -3.648438 43.203125 -1.828125 C 40.210938 -0.00390625 36.765625 0.90625 32.859375 0.90625 C 29.890625 0.90625 27.328125 0.410156 25.171875 -0.578125 C 23.015625 -1.566406 21.191406 -3.113281 19.703125 -5.21875 L 18.796875 -5.046875 L 18.796875 19.265625 Z M 29.53125 -9.21875 C 33.09375 -9.21875 35.789062 -10.378906 37.625 -12.703125 C 39.46875 -15.035156 40.390625 -18.71875 40.390625 -23.75 C 40.390625 -28.78125 39.46875 -32.46875 37.625 -34.8125 C 35.789062 -37.15625 33.09375 -38.328125 29.53125 -38.328125 C 26.195312 -38.328125 23.550781 -37.117188 21.59375 -34.703125 C 19.644531 -32.285156 18.671875 -28.632812 18.671875 -23.75 C 18.671875 -18.894531 19.644531 -15.257812 21.59375 -12.84375 C 23.550781 -10.425781 26.195312 -9.21875 29.53125 -9.21875 Z M 29.53125 -9.21875 "/></g></g></g><g fill="#1a87c8" fill-opacity="1"><g transform="translate(537.480116, 107.089469)"><g><path d="M 22.25 0.90625 C 19 0.90625 16.019531 0.523438 13.3125 -0.234375 C 10.613281 -0.992188 8.304688 -2.039062 6.390625 -3.375 C 4.484375 -4.71875 3.070312 -6.25 2.15625 -7.96875 L 8.796875 -15.140625 L 9.703125 -15.140625 C 11.285156 -13.003906 13.148438 -11.40625 15.296875 -10.34375 C 17.453125 -9.28125 19.796875 -8.75 22.328125 -8.75 C 24.660156 -8.75 26.414062 -9.164062 27.59375 -10 C 28.769531 -10.832031 29.359375 -12.023438 29.359375 -13.578125 C 29.359375 -14.785156 28.929688 -15.796875 28.078125 -16.609375 C 27.234375 -17.429688 25.863281 -18.070312 23.96875 -18.53125 L 17.671875 -20.046875 C 12.960938 -21.171875 9.519531 -22.890625 7.34375 -25.203125 C 5.175781 -27.515625 4.09375 -30.453125 4.09375 -34.015625 C 4.09375 -36.972656 4.847656 -39.546875 6.359375 -41.734375 C 7.867188 -43.921875 9.992188 -45.585938 12.734375 -46.734375 C 15.484375 -47.878906 18.679688 -48.453125 22.328125 -48.453125 C 26.609375 -48.453125 30.15625 -47.832031 32.96875 -46.59375 C 35.789062 -45.363281 37.992188 -43.710938 39.578125 -41.640625 L 33.203125 -34.75 L 32.328125 -34.75 C 31.015625 -36.238281 29.53125 -37.328125 27.875 -38.015625 C 26.21875 -38.710938 24.367188 -39.0625 22.328125 -39.0625 C 17.617188 -39.0625 15.265625 -37.59375 15.265625 -34.65625 C 15.265625 -33.425781 15.703125 -32.421875 16.578125 -31.640625 C 17.453125 -30.867188 19 -30.238281 21.21875 -29.75 L 27.078125 -28.453125 C 31.898438 -27.421875 35.425781 -25.757812 37.65625 -23.46875 C 39.882812 -21.1875 41 -18.117188 41 -14.265625 C 41 -11.253906 40.25 -8.597656 38.75 -6.296875 C 37.257812 -3.992188 35.101562 -2.21875 32.28125 -0.96875 C 29.46875 0.28125 26.125 0.90625 22.25 0.90625 Z M 22.25 0.90625 "/></g></g></g><path fill="#1a87c8" d="M 64.324219 19.042969 C 46.285156 22.9375 30.984375 35.449219 23.726562 52.277344 C 20.152344 60.535156 19.363281 64.6875 19.414062 75.257812 C 19.414062 83.460938 19.574219 84.984375 20.78125 89.5625 C 25.460938 106.753906 38.082031 121.109375 54.488281 127.894531 C 62.273438 131.050781 68.84375 132.207031 77.996094 131.890625 C 93.71875 131.367188 105.339844 126.316406 116.433594 115.273438 C 127.476562 104.179688 132.523438 92.558594 133.050781 76.835938 C 133.261719 70.367188 133.15625 68.367188 132.15625 63.6875 C 129.84375 52.332031 124.953125 43.339844 116.644531 34.976562 C 110.648438 28.984375 105.707031 25.511719 98.871094 22.566406 C 91.402344 19.308594 86.828125 18.359375 77.46875 18.152344 C 70.683594 17.992188 68.476562 18.152344 64.324219 19.042969 Z M 86.882812 25.039062 C 92.085938 26.144531 98.082031 28.511719 102.710938 31.402344 C 106.707031 33.820312 112.121094 38.183594 114.015625 40.5 C 119.90625 47.652344 123.585938 54.539062 125.636719 62.375 C 126.847656 66.84375 127.054688 68.738281 127.054688 74.996094 C 127.054688 81.199219 126.847656 83.144531 125.6875 87.351562 C 120.796875 106.019531 107.179688 119.640625 88.511719 124.53125 C 81.308594 126.476562 71 126.476562 63.796875 124.53125 C 54.382812 122.058594 46.707031 117.746094 40.082031 111.066406 C 20.046875 91.085938 20.046875 58.902344 40.082031 38.921875 C 52.386719 26.617188 69.792969 21.410156 86.882812 25.039062 Z M 86.882812 25.039062 " fill-opacity="1" fill-rule="nonzero"/><path fill="#1a87c8" d="M 100.082031 51.910156 C 93.191406 54.90625 91.667969 63.320312 96.925781 69.261719 C 98.503906 71.050781 98.503906 71.101562 97.660156 73.050781 C 95.875 77.359375 92.507812 79.464844 87.355469 79.464844 C 83.621094 79.464844 81.097656 78.253906 78.941406 75.519531 C 77.996094 74.3125 77.730469 73.3125 77.730469 70.945312 C 77.730469 68.210938 77.519531 67.738281 75.996094 66.214844 C 74.523438 64.742188 73.945312 64.476562 71.683594 64.476562 C 69.421875 64.476562 68.84375 64.742188 67.371094 66.160156 C 65.585938 68 65.375 69.316406 66.164062 74.207031 C 66.480469 76.363281 66.375 76.78125 65.058594 78.359375 C 63.164062 80.621094 60.851562 81.566406 57.277344 81.566406 C 54.753906 81.566406 54.277344 81.410156 53.386719 80.09375 C 51.542969 77.464844 51.070312 75.257812 51.753906 72.523438 C 53.015625 67.632812 49.914062 63.6875 44.707031 63.6875 C 42.394531 63.6875 41.921875 63.898438 40.082031 65.738281 C 38.292969 67.527344 38.03125 68.054688 38.03125 70.261719 C 38.03125 74.574219 40.398438 77.046875 45.128906 77.675781 C 47.074219 77.992188 47.863281 78.414062 49.335938 80.148438 C 51.335938 82.460938 51.597656 84.089844 50.335938 85.984375 C 49.914062 86.667969 49.492188 88.402344 49.492188 89.824219 C 49.335938 95.871094 54.4375 100.078125 60.328125 98.816406 C 65.847656 97.605469 68.265625 92.609375 66.375 86.40625 C 65.53125 83.511719 66.164062 80.882812 68.160156 78.78125 C 69.527344 77.308594 70.371094 76.941406 72.839844 76.625 C 75.46875 76.308594 76.050781 76.414062 77.417969 77.414062 C 79.886719 79.203125 80.78125 81.671875 80.519531 85.511719 C 79.941406 92.191406 83.464844 96.816406 89.039062 96.816406 C 91.5625 96.816406 93.507812 95.921875 95.398438 93.820312 C 97.1875 91.925781 97.503906 90.769531 97.714844 85.617188 C 97.976562 78.519531 101.183594 72.101562 104.445312 72.101562 C 111.226562 72.101562 116.488281 64.53125 114.015625 58.113281 C 111.804688 52.382812 105.496094 49.542969 100.082031 51.910156 Z M 100.082031 51.910156 " fill-opacity="1" fill-rule="nonzero"/></svg>